<?xml version="1.0" encoding="UTF-8"?>
<svg width="512px" height="512px" viewBox="0 0 512 512" version="1.1" xmlns="http://www.w3.org/2000/svg" xmlns:xlink="http://www.w3.org/1999/xlink">
    <!-- Generator: Sketch 53.2 (72643) - https://sketchapp.com -->
    <title>icon</title>
    <desc>Created with Sketch.</desc>
    <g id="icon" stroke="none" stroke-width="1" fill="none" fill-rule="evenodd">
        <rect id="Rectangle-Copy-6" fill="#F0EFEC" x="0" y="0" width="512" height="512" rx="20"></rect>
        <g transform="translate(72.500000, 111.500000)" fill="#E00090" id="Path">
            <path d="M366.5,288.448854 L366.5,31.4891858 C365.834825,15.0967548 365.271984,-9.83713017 328.738501,5.07205437 C267.567944,27.4486178 206.064798,48.9812651 145.482665,72.7899286 C99.5599748,90.8190454 49.2624773,110.612714 23.371802,207.202748 C16.5921292,232.520232 7.27967286,263.156944 0.5,288.474427 L59.9564518,288.474427 C65.4313575,268.015855 72.2877814,242.21248 77.8650217,221.753908 C96.4131833,152.706227 132.818747,138.282933 166.051936,125.21502 C213.739899,106.469853 262.093038,89.4125186 310.215923,71.767 L310.215923,288.5 L366.5,288.448854 Z" fill-rule="nonzero"></path>
            <path d="M145.5,150.5 C139.398188,153.809334 133.683763,157.781934 128.461451,162.344996 C110.472033,178.334462 100.654951,201.154628 94.5128496,223.923627 L77.5,286.5 L145.5,286.5 L145.5,150.5 Z"></path>
            <path d="M218.5,121.5 C203.081303,127.199717 187.765397,133.027422 172.552282,138.983115 C168.466327,140.570162 164.431768,142.157209 160.5,143.821049 L160.5,287.5 L218.5,287.5 L218.5,121.5 Z"></path>
            <path d="M294.5,286.5 L294.5,92.5 C274.166667,99.8680601 253.807692,107.23612 233.5,114.706515 L233.5,286.5 L294.5,286.5 Z"></path>
        </g>
    </g>
</svg>