<?xml version="1.0" encoding="UTF-8"?>
<svg width="421px" height="421px" viewBox="0 0 421 421" version="1.1" xmlns="http://www.w3.org/2000/svg" xmlns:xlink="http://www.w3.org/1999/xlink">
    <!-- Generator: Sketch 53.2 (72643) - https://sketchapp.com -->
    <title>icon-mask</title>
    <desc>Created with Sketch.</desc>
    <g id="icon-mask" stroke="none" stroke-width="1" fill="none" fill-rule="evenodd">
        <g id="icon" transform="translate(0.000000, 46.000000)" fill="#E00090">
            <path d="M420.243481,329.912123 L420.243481,35.5830487 C419.479722,16.8066816 418.833465,-11.7533152 376.885493,5.32409823 C306.649077,30.9548646 236.030782,55.6189849 166.469999,82.8901202 C113.74128,103.541195 55.9893803,126.213438 26.2615456,236.850472 C18.477083,265.849853 7.78446263,300.942034 0,329.941415 L68.2682685,329.941415 C74.5545893,306.507572 82.4271779,276.951637 88.831,253.517793 C110.128115,174.428571 151.92921,157.907712 190.087765,142.939344 C244.843381,121.468085 300.362756,101.930118 355.617753,81.7184281 L355.617753,329.970708 L420.243481,329.912123 Z" id="Path" fill-rule="nonzero"></path>
            <path d="M164.619353,171.850849 C157.644702,175.639985 151.112851,180.18855 145.143509,185.413186 C124.580777,203.720876 113.359401,229.849611 106.338697,255.919762 L86.8922282,327.568739 L164.619353,327.568739 L164.619353,171.850849 Z" id="Path"></path>
            <path d="M249.161555,137.608145 C231.536356,144.130565 214.028659,150.799446 196.638464,157.614789 C191.967786,159.430912 187.355859,161.247034 182.861434,163.151034 L182.861434,327.568739 L249.161555,327.568739 L249.161555,137.608145 Z" id="Path"></path>
            <path d="M337.258172,327.568739 L337.258172,105.445195 C313.963534,113.881378 290.639522,122.317562 267.37426,130.870915 L267.37426,327.568739 L337.258172,327.568739 Z" id="Path"></path>
        </g>
    </g>
</svg>