<?xml version="1.0" encoding="UTF-8"?>
<svg width="600px" height="600px" viewBox="0 0 600 600" version="1.1" xmlns="http://www.w3.org/2000/svg" xmlns:xlink="http://www.w3.org/1999/xlink">
    <!-- Generator: Sketch 53 (72520) - https://sketchapp.com -->
    <title>Group 2 Copy 2</title>
    <desc>Created with Sketch.</desc>
    <defs>
        <path d="M365.16866,64 C364.239983,64 363.486679,63.7073388 362.892805,63.1099891 C362.302916,62.5166485 362,61.7589365 362,60.824826 L362,3.14249769 C362,2.41685817 362.239144,1.75937264 362.701489,1.15400486 C363.159849,0.556655201 363.753724,0.199849028 364.483113,0.0595319939 C365.200545,-0.068757866 365.902035,0.00741423835 366.555695,0.316111714 C367.209356,0.612782015 367.707573,1.08985993 368.042375,1.75937264 C369.756241,5.46374234 371.438221,9.04784031 373.08433,12.4916212 C374.471366,15.4823786 375.894273,18.5493081 377.345081,21.6924096 C378.787917,24.8435293 380.015523,27.445408 380.996014,29.4980458 C381.466331,28.5037994 382.012377,27.3291453 382.634151,25.9740837 C383.259912,24.615013 383.917558,23.1837792 384.615062,21.6924096 C385.316551,20.20104 386.014055,18.6575526 386.735473,17.0699656 C387.472834,15.4823786 388.190266,13.9549274 388.919656,12.4916212 C390.565765,9.04784031 392.255716,5.46374234 393.969583,1.75937264 C394.292427,1.08985993 394.786658,0.612782015 395.456262,0.316111714 C396.113908,0.00741423835 396.80344,-0.068757866 397.528844,0.0595319939 C398.254248,0.199849028 398.852108,0.556655201 399.310468,1.15400486 C399.772813,1.75937264 400,2.41685817 400,3.14249769 L400,60.824826 C400,61.7589365 399.693098,62.5166485 399.067338,63.1099891 C398.437592,63.7073388 397.688274,64 396.843298,64 C395.918607,64 395.145374,63.7073388 394.563457,63.1099891 C393.969583,62.5166485 393.666667,61.7589365 393.666667,60.824826 L393.666667,17.3666359 C392.478918,19.8843244 391.311097,22.3899857 390.15922,24.8715927 C389.003356,27.3572088 387.967065,29.6022813 387.038389,31.5867651 C385.918397,33.9080097 384.862177,36.1570913 383.873715,38.342028 C383.208097,39.5407364 382.255507,40.1380861 380.996014,40.1380861 C379.620936,40.1380861 378.664359,39.5407364 378.134256,38.342028 C377.14978,36.1570913 376.085588,33.9080097 374.969583,31.5867651 C374.044892,29.6022813 372.992658,27.3572088 371.796937,24.8715927 C370.613174,22.3899857 369.449339,19.8843244 368.337319,17.3666359 L368.337319,60.824826 C368.337319,61.7589365 368.026432,62.5166485 367.400671,63.1099891 C366.766939,63.7073388 366.029578,64 365.16866,64 M310.112357,55.7310885 C312.330519,54.0860217 313.530057,51.8645811 313.730635,49.082777 C313.856489,47.7619204 313.695239,46.4730846 313.242954,45.2162695 C312.778871,43.9554519 312.094544,42.8627432 311.193908,41.9301384 L295.564519,25.6555841 C294.070013,24.1345977 292.964865,22.3414348 292.249075,20.2961084 C291.529352,18.2427768 291.265847,16.1494192 291.466426,14.0360486 C291.596212,11.8506313 292.182216,9.8173127 293.220504,7.9320901 C294.266659,6.04286491 295.631379,4.44182661 297.326463,3.11696741 C299.021548,1.79210822 300.905412,0.883518986 302.981989,0.391199709 C305.074298,-0.113127356 307.154808,-0.129137739 309.231385,0.339165964 C311.315828,0.799464475 313.207558,1.64000958 314.89871,2.86480388 C316.589862,4.09760337 317.993911,5.66261831 319.106925,7.59186946 C319.551344,8.3083341 319.669331,9.10485066 319.441222,9.96540874 C319.213113,10.8179616 318.701835,11.4903977 317.923119,11.9506962 C317.211262,12.4149973 316.432545,12.5150622 315.590902,12.2508909 C314.733528,11.982717 314.119994,11.4903977 313.730635,10.7499175 C312.432775,8.51246649 310.501715,7.11556057 307.961055,6.58721793 C305.42826,6.05887529 303.119641,6.58721793 301.039131,8.17224585 C299.021548,9.70524002 297.912467,11.7825872 297.719754,14.4323056 C297.519176,17.0139799 298.293959,19.2634387 300.059837,21.1846846 L315.681359,37.5713116 C317.175865,39.152337 318.296745,40.993531 319.055797,43.082886 C319.795184,45.1642358 320.105884,47.3296401 319.968232,49.5831015 C319.783386,51.8325603 319.165918,53.9299205 318.119764,55.8831872 C317.077543,57.8324513 315.681359,59.4775182 313.923348,60.7983748 C312.165337,62.123234 310.214613,63.0558388 308.071176,63.5761762 C305.919874,64.1085215 303.772505,64.1365396 301.625135,63.6762411 C299.477766,63.2159426 297.503444,62.3353715 295.71397,61.0505383 C293.920562,59.7576999 292.477184,58.1566616 291.36417,56.231413 C290.978745,55.4388991 290.900087,54.6303747 291.124263,53.7978348 C291.348439,52.9652949 291.824321,52.3288822 292.536178,51.8645811 C293.259833,51.4042825 294.03855,51.2802021 294.880193,51.5123526 C295.729701,51.7485058 296.378632,52.2648406 296.842715,53.0493494 C297.48378,54.1860866 298.329356,55.1186914 299.379443,55.8831872 C300.413799,56.6436804 301.593672,57.1600152 302.8876,57.4281891 C305.561979,57.9525292 307.961055,57.3881632 310.112357,55.7310885 M238.261226,63.8481319 C237.44153,63.5986597 236.822817,63.1077626 236.397206,62.339227 C235.971595,61.5988577 235.888837,60.7739897 236.144992,59.8766942 L252.842352,2.29285903 C253.098507,1.40763482 253.606876,0.759811641 254.3714,0.361460745 C255.128042,-0.0328664057 255.920152,-0.101270095 256.720144,0.140154691 C257.602893,0.405721955 258.249192,0.908690259 258.639335,1.65308335 C259.037361,2.39345269 259.104355,3.21429696 258.8482,4.11159242 L242.146899,61.6914039 C241.894685,62.5886993 241.394198,63.228475 240.673023,63.6308496 C239.940026,64.037248 239.136093,64.1056517 238.261226,63.8481319 M202.631034,1.744 C202.235964,1.004 201.585496,0.508 200.695591,0.244 C199.873526,0 199.079395,0.068 198.309208,0.468 C197.539021,0.86 197.020242,1.5 196.768834,2.384 L182.917441,49.256 C181.867911,44.936 172.881066,7.772 171.632007,2.48 C171.173087,0.828 170.159473,0 168.567221,0 C167.840931,0 167.182481,0.236 166.595862,0.696 C166.579899,0.7 166.575909,0.708 166.567928,0.712 C166.017224,1.112 165.622154,1.664 165.414642,2.384 L151.603155,49.108 C151.603155,49.108 140.597063,3.812 140.281806,2.48 C140.098238,1.828 139.774999,1.312 139.332041,0.94 C139.224295,0.848 138.881103,0.608 138.821244,0.58 C138.067019,0.136 137.276879,0.032 136.446833,0.232 C135.548947,0.456 134.870544,0.924 134.439558,1.64 C133.996601,2.36 133.892845,3.168 134.108338,4.072 C134.108338,4.072 147.608558,59.916 148.011609,61.52 C148.123346,62.128 148.414661,62.632 148.849637,63.036 C148.849637,63.036 148.925458,63.1 148.957383,63.128 C149.009261,63.168 149.049167,63.216 149.101045,63.252 C149.109026,63.264 149.120998,63.272 149.13297,63.28 C149.72757,63.748 150.44987,64 151.30785,64 C151.846582,64 152.329445,63.876 152.796346,63.664 C152.876158,63.624 153.091651,63.504 153.131557,63.488 C153.175454,63.456 153.223341,63.42 153.267238,63.388 C153.398928,63.304 153.526627,63.204 153.642355,63.104 C153.662308,63.076 153.694233,63.06 153.718176,63.036 C153.718176,63.036 154.348692,62.208 154.516297,61.628 L168.367691,14.756 C172.142804,30.896 178.412046,57.672 179.365801,61.52 C179.477538,62.128 179.768852,62.632 180.207819,63.036 C180.207819,63.036 180.339509,63.152 180.403359,63.208 C180.427302,63.22 180.439274,63.236 180.455237,63.252 C180.459227,63.252 180.463218,63.256 180.467208,63.264 C181.061809,63.744 181.79608,64 182.666032,64 C183.184811,64 183.659693,63.884 184.114622,63.676 C184.198425,63.64 184.453824,63.5 184.501711,63.472 C184.529645,63.46 184.55758,63.44 184.581523,63.42 C184.737157,63.32 184.876828,63.204 185.008518,63.088 C185.028471,63.064 185.048424,63.036 185.048424,63.036 C185.427532,62.668 185.702884,62.208 185.870489,61.628 L202.846527,4.188 C203.105917,3.304 203.038076,2.488 202.631034,1.744 M73,3.22328149 C73,2.27997993 73.3056142,1.50526844 73.9249925,0.903161064 C74.5443707,0.301053688 75.3226683,0 76.2802596,0 L96.7278901,0 C97.6814066,0 98.4637791,0.301053688 99.0790824,0.903161064 C99.6943858,1.50526844 100,2.27997993 100,3.22328149 C100,4.16256899 99.6943858,4.92925238 99.0790824,5.53537381 C98.4637791,6.13748118 97.6814066,6.43452082 96.7278901,6.43452082 L79.4830969,6.43452082 L79.4830969,27.7812343 L94.686387,27.7812343 C95.6399034,27.7812343 96.4263507,28.078274 97.0375792,28.6803813 C97.6488077,29.2905168 97.954422,30.0572002 97.954422,30.9884596 C97.954422,31.9397893 97.6488077,32.7064727 97.0375792,33.3125941 C96.4263507,33.9106874 95.6399034,34.2197692 94.686387,34.2197692 L79.4830969,34.2197692 L79.4830969,57.5654792 L96.7278901,57.5654792 C97.6814066,57.5654792 98.4637791,57.8665329 99.0790824,58.4726543 C99.6943858,59.0667336 100,59.8494732 100,60.7767185 C100,61.7200201 99.6943858,62.4947316 99.0790824,63.0968389 C98.4637791,63.7029604 97.6814066,64 96.7278901,64 L76.2802596,64 C75.3226683,64 74.5443707,63.7029604 73.9249925,63.0968389 C73.3056142,62.4947316 73,61.7200201 73,60.7767185 L73,3.22328149 M31.5236534,63.8935057 C30.8030445,64.0857871 30.1103044,64.0176874 29.4494145,63.6892067 C28.7925059,63.3647318 28.2948478,62.8680049 27.9644028,62.19502 C25.2053864,56.4946778 22.5021077,50.9064997 19.8665105,45.4064506 C18.7437939,43.0990738 17.5733021,40.6715212 16.3590164,38.1598455 C15.1327869,35.6361521 13.930445,33.136494 12.7519906,30.6568651 C11.5615925,28.1732304 10.4269321,25.7737188 9.33606557,23.4503186 C8.24918033,21.1309243 7.24590164,19.0118231 6.32224824,17.093015 L6.32224824,60.8129975 C6.32224824,61.7423576 6.02763466,62.5034714 5.43442623,63.0963391 C4.84519906,63.6892067 4.08079625,63.9856405 3.16112412,63.9856405 C2.23747073,63.9856405 1.47704918,63.6892067 0.887822014,63.0963391 C0.294613583,62.5034714 0,61.7423576 0,60.8129975 L0,3.17264304 C0,2.4515878 0.230913349,1.7906205 0.688758782,1.18974114 C1.14660422,0.592867639 1.74379391,0.236345883 2.46838407,0.0921348358 C3.19297424,-0.0360527618 3.88173302,0.0400586243 4.54262295,0.352515893 C5.20351288,0.644943851 5.70117096,1.12564734 6.02763466,1.7906205 C8.72693208,7.48695687 11.3943794,13.0871525 14.0299766,18.5872017 C15.1526932,20.9025901 16.3271663,23.3141193 17.541452,25.8298009 C18.759719,28.3575001 19.9620609,30.8491465 21.152459,33.3367871 C22.3348946,35.8204218 23.4854801,38.2239393 24.6042155,40.5393277 C25.7269321,42.8587221 26.7461358,44.9778233 27.6737705,46.9006373 L27.6737705,3.17264304 C27.6737705,2.25930641 27.9644028,1.48617496 28.5576112,0.897313183 C29.1587822,0.300439682 29.9152225,0 30.8388759,0 C31.7625293,0 32.5189696,0.300439682 33.1161593,0.897313183 C33.7014052,1.48617496 34,2.25930641 34,3.17264304 L34,60.8129975 C34,61.5420644 33.7651054,62.19502 33.30726,62.7999052 C32.841452,63.3967787 32.2522248,63.7573064 31.5236534,63.8935057" id="path-1"></path>
    </defs>
    <g id="Page-2" stroke="none" stroke-width="1" fill="none" fill-rule="evenodd">
        <g id="Group-2-Copy-2" transform="translate(0.000000, -0.000000)">
            <rect id="Rectangle-Copy-6" fill="#F0EFEC" x="0" y="0" width="600" height="600"></rect>
            <g id="Logo-/-Dynamic---Lockup" transform="translate(100.000000, 80.000000)">
                <g id="Logo-/-Dynamic" fill-rule="evenodd">
                    <polygon id="Shape" fill="#800075" points="0 0 0 320 280 320"></polygon>
                    <polygon id="Shape" fill="#FF0099" opacity="0.4" points="400 0 400 320 280 320"></polygon>
                    <polygon id="Shape" fill="#FF0099" opacity="0.4" points="0 0 0 320 280 320"></polygon>
                    <polygon id="Shape" fill="#FF0099" opacity="0.6" points="120 0 0 320 400 320"></polygon>
                </g>
                <g id="LogoType-/-Black" transform="translate(0.000000, 376.000000)">
                    <mask id="mask-2" fill="white">
                        <use xlink:href="#path-1"></use>
                    </mask>
                    <use id="Combined-Shape" fill="#0D0F12" fill-rule="evenodd" xlink:href="#path-1"></use>
                </g>
            </g>
        </g>
    </g>
</svg>